<svg width="33" height="33" viewBox="0 0 33 33" fill="none" xmlns="http://www.w3.org/2000/svg">
<path d="M25.6036 2.36693C16.0203 11.9561 20.1664 17.5704 30.488 7.24244L31.9999 8.75155L22.5266 18.2307C21.7058 19.052 20.4816 19.0329 19.2224 18.515C14.9201 20.4024 12.7804 23.9536 12.2484 25.4933C7.15972 30.8989 5.07235 29.7564 5.07235 29.7564C5.07235 29.7564 4.01585 27.7608 9.41852 22.6686C14.8212 17.5764 12.8139 21.2364 14.4097 13.5677C13.9527 12.3436 14.1072 11.3909 14.8898 10.6078L23.9561 0.722412L25.6036 2.36693Z" fill="#D9D9D9"/>
<path d="M14.4097 13.5677C13.9527 12.3436 14.1072 11.3909 14.8898 10.6078L23.9561 0.722412L25.6036 2.36693C16.0203 11.9561 20.1664 17.5704 30.488 7.24244L31.9999 8.75155L22.5266 18.2307C21.7058 19.052 20.4816 19.0329 19.2224 18.515M14.4097 13.5677C15.1764 15.6043 17.1978 17.6822 19.2224 18.515M14.4097 13.5677C16.2892 15.4997 17.343 16.5829 19.2224 18.515M14.4097 13.5677C12.8139 21.2364 14.8212 17.5764 9.41852 22.6686C4.01585 27.7608 5.07235 29.7564 5.07235 29.7564C5.07235 29.7564 7.15972 30.8989 12.2484 25.4933C12.7804 23.9536 14.9201 20.4024 19.2224 18.515M14.4097 13.5677L19.2224 18.515" stroke="#D9D9D9"/>
</svg>
